<?xml version="1.0" encoding="UTF-8"?>
<svg version="1.1" xmlns="http://www.w3.org/2000/svg" width="1080" height="1080">
<path d="M0 0 C1.34486931 -0.00702217 2.68973828 -0.01410899 4.03460693 -0.02125549 C8.3095345 -0.0406577 12.58440784 -0.04568966 16.859375 -0.046875 C17.95185547 -0.04753778 17.95185547 -0.04753778 19.06640625 -0.04821396 C41.05288634 -0.05521029 62.78041897 0.24801364 84.609375 3.203125 C85.98010004 3.38216691 87.3508697 3.56086748 88.72167969 3.73925781 C107.87668872 6.26429837 126.81299232 9.70701545 145.609375 14.203125 C146.76872559 14.47962891 147.92807617 14.75613281 149.12255859 15.04101562 C228.30636239 34.2805193 303.49236112 72.4449522 365.609375 125.203125 C366.15158691 125.66187012 366.69379883 126.12061523 367.25244141 126.59326172 C380.760941 138.05199172 393.62094031 150.14389486 406.171875 162.640625 C407.27849487 163.7402356 407.27849487 163.7402356 408.4074707 164.86206055 C412.45631695 168.92289791 416.33132535 173.07978195 420.07495117 177.42358398 C422.0030132 179.6596451 423.99230933 181.83656465 425.984375 184.015625 C430.7115041 189.26710792 435.21283783 194.67322995 439.609375 200.203125 C440.12661133 200.85313477 440.64384766 201.50314453 441.17675781 202.17285156 C479.28151637 250.22755285 509.55212995 304.20362413 529.609375 362.203125 C529.9904541 363.29850586 530.3715332 364.39388672 530.76416016 365.52246094 C547.91278355 415.33895615 558.62930234 469.05735228 558.8125 521.84765625 C558.81952064 523.21775342 558.82660747 524.58785026 558.83375549 525.95794678 C558.85315306 530.31051098 558.85818919 534.66302193 558.859375 539.015625 C558.85981686 539.75667858 558.86025871 540.49773216 558.86071396 541.26124191 C558.86753364 563.06022013 558.60767261 584.56580404 555.609375 606.203125 C555.44308594 607.50056641 555.27679687 608.79800781 555.10546875 610.13476562 C543.96477439 697.05126575 511.37018431 780.77719568 437.609375 882.203125 C436.71702782 883.26917975 435.82512452 884.33560615 434.93359375 885.40234375 C429.29491186 892.12972574 423.52570122 898.71753028 417.609375 905.203125 C416.83851563 906.06679688 416.06765625 906.93046875 415.2734375 907.8203125 C409.34312012 914.40752657 403.17924441 920.73831996 396.921875 927.015625 C396.12604004 927.81605225 395.33020508 928.61647949 394.51025391 929.44116211 C389.70392796 934.23500539 384.75428273 938.7775443 379.609375 943.203125 C378.00169127 944.65758017 376.39697785 946.11533395 374.796875 947.578125 C369.54516543 952.30545813 364.13670093 956.8030721 358.609375 961.203125 C357.65828857 961.96302734 357.65828857 961.96302734 356.68798828 962.73828125 C308.73365608 1000.93019939 254.56704598 1031.16034545 196.609375 1051.203125 C195.51399414 1051.5842041 194.41861328 1051.9652832 193.29003906 1052.35791016 C143.28323153 1069.57204587 89.42580226 1080.21528973 36.4375 1080.40625 C34.47373161 1080.41677147 34.47373161 1080.41677147 32.47029114 1080.42750549 C28.26664745 1080.44690589 24.06305894 1080.45193979 19.859375 1080.453125 C19.14293194 1080.45356686 18.42648888 1080.45400871 17.68833542 1080.45446396 C-4.14843564 1080.46152651 -25.71229342 1080.10155702 -47.390625 1077.203125 C-48.71979345 1077.03439924 -50.0490605 1076.8664487 -51.37841797 1076.69921875 C-133.19064483 1066.27703757 -211.59537296 1036.48261043 -280.390625 991.203125 C-281.10766602 990.73197266 -281.82470703 990.26082031 -282.56347656 989.77539062 C-298.25031097 979.39829592 -313.30073104 967.95517717 -327.53125 955.66015625 C-330.39754088 953.19718225 -333.3206012 950.82108332 -336.265625 948.453125 C-339.93776858 945.46651907 -343.34389389 942.38371235 -346.62084961 938.97192383 C-348.32902281 937.2646932 -350.09630974 935.70622903 -351.9375 934.14453125 C-357.17857336 929.5884358 -362.05507686 924.68464979 -366.953125 919.765625 C-367.85998047 918.86263672 -368.76683594 917.95964844 -369.70117188 917.02929688 C-374.80815039 911.91491158 -379.68992781 906.69079901 -384.390625 901.203125 C-385.84508017 899.59544127 -387.30283395 897.99072785 -388.765625 896.390625 C-393.4927541 891.13914208 -397.99408783 885.73302005 -402.390625 880.203125 C-403.16647949 879.22811035 -403.16647949 879.22811035 -403.95800781 878.23339844 C-442.06276637 830.17869715 -472.33337995 776.20262587 -492.390625 718.203125 C-492.7717041 717.10774414 -493.1527832 716.01236328 -493.54541016 714.88378906 C-510.69403355 665.06729385 -521.41055234 611.34889772 -521.59375 558.55859375 C-521.60077064 557.18849658 -521.60785747 555.81839974 -521.61500549 554.44830322 C-521.63440306 550.09573902 -521.63943919 545.74322807 -521.640625 541.390625 C-521.64106686 540.64957142 -521.64150871 539.90851784 -521.64196396 539.14500809 C-521.64878231 517.35027726 -521.41149932 495.83422118 -518.390625 474.203125 C-518.21101824 472.84972796 -518.0323407 471.49620734 -517.85449219 470.14257812 C-515.31238144 450.9707452 -511.89140203 432.01902051 -507.390625 413.203125 C-506.97586914 411.46409912 -506.97586914 411.46409912 -506.55273438 409.68994141 C-498.82935712 377.90292654 -488.06602485 346.914398 -474.390625 317.203125 C-473.90239258 316.13852051 -473.41416016 315.07391602 -472.91113281 313.97705078 C-452.83649442 270.51287821 -427.41986695 229.72712855 -396.390625 193.203125 C-395.9265625 192.6555957 -395.4625 192.10806641 -394.984375 191.54394531 C-383.68540757 178.24892304 -371.82697346 165.56468482 -359.515625 153.203125 C-358.73106934 152.41389648 -357.94651367 151.62466797 -357.13818359 150.81152344 C-352.38307162 146.06952205 -347.47898913 141.58273253 -342.390625 137.203125 C-340.78294127 135.74866983 -339.17822785 134.29091605 -337.578125 132.828125 C-332.32664208 128.1009959 -326.92052005 123.59966217 -321.390625 119.203125 C-320.74061523 118.68588867 -320.09060547 118.16865234 -319.42089844 117.63574219 C-271.36619715 79.53098363 -217.39012587 49.26037005 -159.390625 29.203125 C-158.29524414 28.8220459 -157.19986328 28.4409668 -156.07128906 28.04833984 C-106.34983514 10.93243307 -52.69355662 0.18655196 0 0 Z " fill="#000000" transform="translate(521.390625,-0.203125)"/>
<path d="M0 0 C34.03894157 -0.04588821 68.07787537 -0.08107522 102.11684106 -0.10213066 C106.14552104 -0.10463174 110.17420097 -0.10722042 114.20288086 -0.10986328 C115.00483833 -0.1103879 115.8067958 -0.11091252 116.63305501 -0.11145304 C129.57779668 -0.12012952 142.52252039 -0.13588412 155.46725144 -0.15430559 C168.77324774 -0.17308169 182.07923471 -0.18413293 195.38524371 -0.18817699 C203.5800257 -0.19090615 211.7747569 -0.19949081 219.96952323 -0.21583293 C225.60712589 -0.22649527 231.24470272 -0.22957998 236.8823147 -0.22700275 C240.12335683 -0.22573566 243.36429369 -0.22865641 246.60532379 -0.23841095 C309.89812301 -0.41939542 366.84702637 18.61252106 413 63 C413.49129395 63.46937988 413.98258789 63.93875977 414.48876953 64.42236328 C454.9240904 103.22667961 478.34587538 158.81529451 480.359375 214.55859375 C480.64608592 229.88136065 479.58925622 244.89900518 477 260 C476.83902832 260.94504395 476.67805664 261.89008789 476.51220703 262.86376953 C468.88351428 305.77058612 447.99910912 344.68664419 418 376 C417.44860352 376.58394531 416.89720703 377.16789062 416.32910156 377.76953125 C403.14719714 391.67603785 388.42770504 403.16252957 372 413 C371.35579102 413.39251953 370.71158203 413.78503906 370.04785156 414.18945312 C336.62953174 434.37802163 298.31859389 444.24246682 259.41674805 444.11352539 C257.64362747 444.11374443 257.64362747 444.11374443 255.83468628 444.1139679 C251.97701093 444.11327832 248.11938553 444.10553119 244.26171875 444.09765625 C241.56744921 444.0952282 238.87317971 444.0943171 236.1789093 444.09336853 C229.84341728 444.09027887 223.50794281 444.08209786 217.17245847 444.07201904 C209.95101511 444.06078383 202.72957084 444.05532891 195.50812089 444.05032361 C180.67207115 444.03991287 165.83603674 444.02235995 151 444 C150.93492752 445.03246353 150.86985504 446.06492706 150.80281067 447.12867737 C150.71473699 448.49537708 150.62657198 449.86207091 150.53833008 451.22875977 C150.49577339 451.90782631 150.45321671 452.58689285 150.40937042 453.28653717 C150.1068206 457.93461 149.57523718 462.36986903 148.6875 466.9375 C148.42051405 468.35912008 148.1549808 469.78101348 147.890625 471.203125 C147.74818359 471.96044922 147.60574219 472.71777344 147.45898438 473.49804688 C146.56248743 478.38490895 145.75422069 483.28679295 144.9375 488.1875 C144.77531982 489.14841553 144.61313965 490.10933105 144.44604492 491.09936523 C143.58542734 496.25215472 142.79098296 501.40829928 142.06640625 506.58203125 C140.73235145 516.04765316 139.15572828 525.47288672 137.60449219 534.90478516 C136.12435925 543.9159667 134.6994964 552.9262995 133.43359375 561.97070312 C132.85785818 565.9930719 132.1910195 569.99612412 131.5 574 C130.40942715 580.42960854 129.42880518 586.86498688 128.52734375 593.32421875 C126.91039752 604.59493287 125.03957505 615.82733252 123.12963867 627.05151367 C121.94233617 634.13401086 120.950862 641.24278126 120.00195312 648.36083984 C119.88529297 649.21242676 119.76863281 650.06401367 119.6484375 650.94140625 C119.54708496 651.70138916 119.44573242 652.46137207 119.34130859 653.24438477 C119 655 119 655 118 656 C115.18052855 656.09791283 112.38555375 656.12992699 109.56565857 656.12025452 C108.22292998 656.12153615 108.22292998 656.12153615 106.85307556 656.12284368 C103.82968352 656.12450124 100.80634599 656.11897263 97.78295898 656.11352539 C95.62520346 656.11324355 93.46744785 656.11340119 91.30969238 656.1139679 C85.43183155 656.114256 79.55399094 656.10835719 73.67613482 656.10139394 C67.54085056 656.09516255 61.40556588 656.09455677 55.27027893 656.09336853 C43.64324568 656.09025458 32.01622177 656.08204033 20.38919264 656.07201904 C7.15604883 656.06085988 -6.07709543 656.05534795 -19.31024277 656.05032361 C-46.54016704 656.03985777 -73.770083 656.0222571 -101 656 C-101.04099944 647.21965075 -101.04099944 647.21965075 -100.30078125 643.671875 C-100.14593262 642.88965576 -99.99108398 642.10743652 -99.83154297 641.30151367 C-99.66025879 640.45951416 -99.48897461 639.61751465 -99.3125 638.75 C-96.98314638 626.72351535 -95.35765058 614.61698522 -93.7512207 602.47753906 C-92.0859815 589.99849845 -92.0859815 589.99849845 -91.0078125 585.55078125 C-89.22306976 578.16714218 -88.49737731 570.52333324 -87.5 563 C-85.13973831 545.19627109 -85.13973831 545.19627109 -83.51367188 538.49609375 C-82.12403063 531.74338837 -81.40579752 524.83253624 -80.5 518 C-78.13973831 500.19627109 -78.13973831 500.19627109 -76.51367188 493.49609375 C-75.12403063 486.74338837 -74.40579752 479.83253624 -73.5 473 C-71.13973831 455.19627109 -71.13973831 455.19627109 -69.51367188 448.49609375 C-68.12403063 441.74338837 -67.40579752 434.83253624 -66.5 428 C-64.13973831 410.19627109 -64.13973831 410.19627109 -62.51367188 403.49609375 C-61.12403063 396.74338837 -60.40579752 389.83253624 -59.5 383 C-57.13973831 365.19627109 -57.13973831 365.19627109 -55.51367188 358.49609375 C-54.12403063 351.74338837 -53.40579752 344.83253624 -52.5 338 C-52.0773479 334.81188596 -51.64956003 331.6245208 -51.21875 328.4375 C-51.12597778 327.724729 -51.03320557 327.01195801 -50.93762207 326.27758789 C-50.23236822 321.06521193 -49.15160607 316.1822273 -48 311 C-79.68 311 -111.36 311 -144 311 C-143.38909105 304.89091053 -142.76390488 299.27031963 -141.625 293.3125 C-140.18028656 285.51247077 -139.12024286 277.68547498 -138.17822266 269.80981445 C-137.1071457 261.11220045 -135.53181533 252.68028685 -134 244 C-101.99 244 -69.98 244 -37 244 C-36.67 240.7 -36.34 237.4 -36 234 C-35.70398926 231.70094179 -35.39309271 229.40371575 -35.0625 227.109375 C-34.88976562 225.90539062 -34.71703125 224.70140625 -34.5390625 223.4609375 C-34.27222656 221.62402344 -34.27222656 221.62402344 -34 219.75 C-33.73316406 217.88988281 -33.73316406 217.88988281 -33.4609375 215.9921875 C-32.69121285 210.65006868 -31.88741535 205.3244921 -31 200 C-62.68 200 -94.36 200 -127 200 C-123 171 -123 171 -121 162 C-120.69648055 160.10502134 -120.41963286 158.20534254 -120.18359375 156.30078125 C-120.05919922 155.31916016 -119.93480469 154.33753906 -119.80664062 153.32617188 C-119.68482422 152.33166016 -119.56300781 151.33714844 -119.4375 150.3125 C-119.18715719 148.30847368 -118.93588275 146.30456349 -118.68359375 144.30078125 C-118.57587646 143.42591064 -118.46815918 142.55104004 -118.35717773 141.6496582 C-117.9672869 138.7573238 -117.47979763 135.87878575 -117 133 C-84.99 133 -52.98 133 -20 133 C-19.34 127.39 -18.68 121.78 -18 116 C-17.42100248 111.97230107 -16.8258056 107.95526621 -16.1875 103.9375 C-15.93528687 102.32597046 -15.93528687 102.32597046 -15.67797852 100.68188477 C-15.31452695 98.36064957 -14.94982781 96.03960942 -14.58398438 93.71875 C-13.96089638 89.75099236 -13.34683679 85.7819078 -12.734375 81.8125 C-9.07552829 58.14400628 -9.07552829 58.14400628 -7.375 48.9375 C-6.04325686 41.62039444 -5.06966809 34.2754046 -4.17724609 26.89233398 C-3.42132129 20.77022846 -2.47275404 14.69465191 -1.44726562 8.61303711 C-1.30798645 7.78245537 -1.16870728 6.95187363 -1.02520752 6.09612274 C-0.68431067 4.06394091 -0.34227171 2.03195072 0 0 Z " fill="#FDFDFD" transform="translate(378,211)"/>
<path d="M0 0 C27.89602588 -0.09374892 55.79202788 -0.16412825 83.68817997 -0.20724869 C96.64300387 -0.22780901 109.59772946 -0.25580377 122.55249023 -0.30175781 C133.85359867 -0.34182654 145.15463585 -0.36748016 156.45581335 -0.37635398 C162.4308632 -0.38153501 168.40570935 -0.39357381 174.38069344 -0.42292023 C180.02367359 -0.45040707 185.66636935 -0.45837897 191.3094101 -0.45243073 C193.36222577 -0.45351629 195.41505263 -0.46126932 197.46780968 -0.4768219 C219.32281663 -0.63404917 239.72802902 2.70420396 260 11 C260.73412109 11.29890137 261.46824219 11.59780273 262.22460938 11.90576172 C298.42544555 26.99488392 329.01241975 57.43964915 344.11035156 93.6640625 C348.42503418 104.50550474 352.28311767 115.42072596 354 127 C354.10006348 127.66402832 354.20012695 128.32805664 354.30322266 129.01220703 C357.36301768 150.20911773 357.25284638 171.2094086 352 192 C351.78472656 192.98097656 351.56945312 193.96195313 351.34765625 194.97265625 C345.11159874 221.34343541 330.39377555 244.5280813 312 264 C310.95779297 265.12148438 310.95779297 265.12148438 309.89453125 266.265625 C283.94808268 293.29908325 244.68439792 310.17502939 207.30982018 311.09037685 C202.83725938 311.13561243 198.3648006 311.12388422 193.89208984 311.11352539 C192.17635093 311.1132429 190.46061189 311.11340246 188.74487305 311.1139679 C184.1133708 311.11425346 179.48189473 311.10839577 174.85039854 311.10139394 C170.00041558 311.0951202 165.15043195 311.09455343 160.30044556 311.09336853 C151.1280373 311.09026704 141.95564104 311.08206963 132.78323805 311.07201904 C122.33580632 311.06082113 111.888374 311.0553382 101.44093776 311.05032361 C79.96061849 311.03988599 58.48031 311.02230952 37 311 C36.93408629 311.67720219 36.86817259 312.35440437 36.8002615 313.05212784 C36.71232862 313.94550732 36.62439573 314.8388868 36.53379822 315.75933838 C36.44725951 316.64279057 36.36072081 317.52624275 36.27155972 318.43646622 C35.91472849 321.80496622 35.41305762 325.13969305 34.87890625 328.484375 C34.77408432 329.14729553 34.66926239 329.81021606 34.56126404 330.4932251 C34.23100679 332.57925069 33.89700238 334.66465134 33.5625 336.75 C33.12480745 339.49455552 32.68884375 342.23938159 32.25390625 344.984375 C32.14607819 345.6635498 32.03825012 346.34272461 31.92715454 347.04248047 C31.25384909 351.30966973 30.6258792 355.58111537 30.02734375 359.859375 C28.706322 369.23230713 27.14054008 378.56523469 25.60449219 387.90478516 C23.95898093 397.92280467 22.39122248 407.94277449 21 418 C19.00454355 432.27674996 17.00474708 446.5262001 14.41064453 460.70751953 C12.22213734 472.92516671 10.20213564 485.1777658 8.5 497.47265625 C7.84821125 502.07082222 7.14941784 506.66080227 6.4375 511.25 C6.24692017 512.503573 6.24692017 512.503573 6.05249023 513.7824707 C5.11621462 519.76757077 5.11621462 519.76757077 4 522 C-23.72 522 -51.44 522 -80 522 C-80 515.40084993 -79.61002574 510.00241008 -78.3125 503.6875 C-75.97574742 491.682567 -74.35505968 479.59700368 -72.7512207 467.47729492 C-71.08588003 454.99807987 -71.08588003 454.99807987 -70.0078125 450.55078125 C-68.22306976 443.16714218 -67.49737731 435.52333324 -66.5 428 C-64.13973831 410.19627109 -64.13973831 410.19627109 -62.51367188 403.49609375 C-61.12403063 396.74338837 -60.40579752 389.83253624 -59.5 383 C-57.13973831 365.19627109 -57.13973831 365.19627109 -55.51367188 358.49609375 C-54.12403063 351.74338837 -53.40579752 344.83253624 -52.5 338 C-50.13973831 320.19627109 -50.13973831 320.19627109 -48.51367188 313.49609375 C-47.12403063 306.74338837 -46.40579752 299.83253624 -45.5 293 C-45.0773479 289.81188596 -44.64956003 286.6245208 -44.21875 283.4375 C-44.12597778 282.724729 -44.03320557 282.01195801 -43.93762207 281.27758789 C-43.46563886 277.78926387 -42.88038596 274.38534991 -42.06066895 270.96118164 C-40.82889976 265.49611899 -40.09518262 259.98952006 -39.375 254.4375 C-39.2409375 253.42880859 -39.106875 252.42011719 -38.96875 251.38085938 C-38.64232496 248.92101352 -38.31947892 246.46075593 -38 244 C-36.74600875 243.99761165 -35.4920175 243.99522329 -34.20002651 243.99276257 C-4.38300918 243.93531049 25.4339281 243.86251478 55.25085855 243.77101372 C58.92676018 243.75974656 62.60266219 243.74860794 66.27856445 243.73754883 C67.01032103 243.73534514 67.74207761 243.73314146 68.49600863 243.730871 C80.31960757 243.69557027 92.14320645 243.67066546 103.96683843 243.64965298 C116.11345609 243.6278332 128.26000581 243.59472458 140.40656561 243.55129844 C147.22300287 243.52724801 154.03937284 243.50828376 160.85585213 243.50238609 C167.28019885 243.49631454 173.70435403 243.47623978 180.12862968 243.44572449 C182.47826174 243.43697743 184.82791886 243.43321472 187.17756653 243.43499184 C202.80753855 243.44307618 217.71270726 243.17768389 232.125 236.375 C232.87797363 236.02727539 233.63094727 235.67955078 234.40673828 235.32128906 C254.87360593 225.56438554 270.67959878 209.43853877 278.94140625 188.2265625 C281.01230567 181.91452219 282.51362801 175.47008985 284 169 C284.26478149 168.03839966 284.26478149 168.03839966 284.53491211 167.05737305 C288.83604741 148.03077612 282.61333442 126.33588468 273.22265625 109.88671875 C259.36054909 88.03051299 239.59973963 74.61428521 214.5645774 68.65148574 C204.34037368 66.39927365 194.30514884 66.29169274 183.87963867 66.34057617 C181.75833199 66.33209692 179.63703308 66.32144105 177.51574707 66.30880737 C171.82904424 66.2809671 166.1427225 66.28307778 160.45597243 66.29110122 C154.48624369 66.29425233 148.51663091 66.26911631 142.54695129 66.24714661 C131.27472659 66.20987554 120.00262248 66.19756869 108.73034221 66.1945222 C95.88360919 66.18981289 83.03699559 66.1568298 70.1903156 66.12162435 C43.79355816 66.04991133 17.39684706 66.01320861 -9 66 C-9.03254983 57.19497503 -9.03254983 57.19497503 -8.44921875 53.66015625 C-8.32933594 52.91660889 -8.20945312 52.17306152 -8.0859375 51.40698242 C-7.88871094 50.24646362 -7.88871094 50.24646362 -7.6875 49.0625 C-7.55214844 48.23403564 -7.41679687 47.40557129 -7.27734375 46.55200195 C-6.52258401 41.97234 -5.71851732 37.40267031 -4.889328 32.83598328 C-3.54085675 25.39452541 -2.40809857 17.95265199 -1.40625 10.45703125 C-1.26993164 9.44692993 -1.13361328 8.43682861 -0.99316406 7.39611816 C-0.66068136 4.93093392 -0.32965618 2.46556353 0 0 Z " fill="#000000" transform="translate(435,278)"/>
<path d="M0 0 C28.77244713 -0.11684726 57.54485866 -0.20499521 86.31749535 -0.25906086 C99.67740831 -0.28483273 113.03715604 -0.31996411 126.39697266 -0.37719727 C138.04258245 -0.42706298 149.68808541 -0.45929841 161.333799 -0.47044247 C167.49906874 -0.47695576 173.66403286 -0.49224333 179.82920456 -0.52865028 C185.63551747 -0.56265937 191.44139968 -0.57304281 197.24780273 -0.56553841 C199.37542692 -0.56691073 201.50306592 -0.57681354 203.63060379 -0.59602737 C225.03646386 -0.7798154 225.03646386 -0.7798154 232 5 C237.84589916 11.3579784 239.37732125 16.31381861 239.2734375 24.92578125 C238.64542096 31.98648152 235.25506126 36.29546936 229.9765625 40.7734375 C224.40643798 44.22999699 218.91711225 44.28273941 212.58474731 44.24050903 C211.17435726 44.24307231 211.17435726 44.24307231 209.73547447 44.24568737 C206.58935952 44.24897785 203.44345853 44.23798573 200.29736328 44.22705078 C198.04034938 44.22648657 195.7833351 44.22680342 193.52632141 44.22793579 C187.40080687 44.22850993 181.27537056 44.21674569 175.14987421 44.20278788 C168.74769645 44.19029071 162.34551693 44.18911081 155.94332886 44.18673706 C145.19820546 44.18122588 134.45311627 44.16873096 123.70800781 44.15087891 C112.64192854 44.13251274 101.57585707 44.11835984 90.50976562 44.10986328 C89.48609716 44.10907511 89.48609716 44.10907511 88.44174851 44.10827102 C85.01802005 44.10566089 81.59429154 44.10313348 78.17056298 44.10064721 C49.78035557 44.07992358 21.39017932 44.04455682 -7 44 C-6.5366412 40.21579924 -6.06941646 36.43208492 -5.6015625 32.6484375 C-5.47209229 31.59068115 -5.34262207 30.5329248 -5.20922852 29.44311523 C-4.38737681 22.81486851 -3.45991264 16.21534336 -2.375 9.625 C-2.25286133 8.88113037 -2.13072266 8.13726074 -2.00488281 7.37084961 C-1.12969419 2.25938838 -1.12969419 2.25938838 0 0 Z " fill="#000000" transform="translate(415,411)"/>
</svg>
